<svg height="100" width="18" xmlns="http://www.w3.org/2000/svg"><g fill="none" fill-rule="evenodd" transform="translate(-32 -32)"><path d="m48 132a2 2 0 1 1 0-4 2 2 0 0 1 0 4zm-7 0a2 2 0 1 1 0-4 2 2 0 0 1 0 4zm-7 0a2 2 0 1 1 0-4 2 2 0 0 1 0 4z" fill="#fff"/><path d="m32 112h16v16h-16z" opacity=".1"/><path d="m44.364 115.364a.9.9 0 0 1 1.272 1.272l-7 7a.9.9 0 0 1 -1.272 0l-3-3a.9.9 0 0 1 1.272-1.272l2.364 2.363z" fill="#fff" fill-rule="nonzero"/><path d="m32 96h16v16h-16z" opacity=".1"/><path d="m44.364 99.364a.9.9 0 0 1 1.272 1.272l-7 7a.9.9 0 0 1 -1.272 0l-3-3a.9.9 0 0 1 1.272-1.272l2.364 2.363z" fill="#5181b8" fill-rule="nonzero"/><g fill="#fff"><path d="m35.846 80h8.308c1.337 0 1.822.14 2.311.4.49.262.873.646 1.134 1.135.262.489.401.974.401 2.31v8.31c0 1.336-.14 1.821-.4 2.31a2.726 2.726 0 0 1 -1.135 1.134c-.489.262-.974.401-2.31.401h-8.31c-1.336 0-1.821-.14-2.31-.4a2.726 2.726 0 0 1 -1.134-1.135c-.262-.489-.401-.974-.401-2.31v-8.31c0-1.336.14-1.821.4-2.31a2.726 2.726 0 0 1 1.135-1.134c.489-.262.974-.401 2.31-.401zm3.087 9.16-1.797-1.796a.9.9 0 1 0 -1.272 1.272l2.5 2.5a.9.9 0 0 0 1.333-.066l4.5-5.5a.9.9 0 0 0 -1.394-1.14z"/><path d="m38.933 89.16 3.87-4.73a.9.9 0 0 1 1.394 1.14l-4.5 5.5a.9.9 0 0 1 -1.333.066l-2.5-2.5a.9.9 0 1 1 1.272-1.272z" fill-rule="nonzero" opacity=".12"/></g><rect fill="#fff" fill-opacity=".12" height="15" rx="3" stroke="#fff" width="15" x="32.5" y="64.5"/><g transform="translate(32 48)"><rect fill="#5181b8" height="16" rx="3" width="16"/><path d="m6.933 9.16 3.87-4.73a.9.9 0 0 1 1.394 1.14l-4.5 5.5a.9.9 0 0 1 -1.333.066l-2.5-2.5a.9.9 0 1 1 1.272-1.272z" fill="#fff" fill-rule="nonzero"/></g><rect fill="#fff" height="15" rx="3" stroke="#c1c9d1" width="15" x="32.5" y="32.5"/></g></svg>